<svg width="49" height="49" viewBox="0 0 49 49" fill="none" xmlns="http://www.w3.org/2000/svg">
<path d="M24.3839 10.6678V4.57183C21.4884 4.57183 18.5928 5.18143 16.1544 6.40062L14.3256 4.57183C12.3444 2.59064 8.9916 2.59064 7.01041 4.57183L6.09602 5.48623C4.11482 7.46742 4.11482 10.8202 6.09602 12.8014L7.46761 14.173C5.63882 17.221 4.57202 20.5738 4.57202 24.3838C4.57202 29.1081 6.24841 33.5277 9.144 37.0329V44.1957C9.144 44.3481 9.144 44.5005 9.144 44.6529V44.8053C9.144 44.8053 9.144 44.8053 9.144 44.9577C9.144 45.1101 9.2964 45.2625 9.4488 45.4149C9.6012 45.5673 9.7536 45.5673 9.906 45.7197C9.906 45.7197 9.906 45.7197 10.0584 45.7197H10.2108C10.3632 45.7197 10.5156 45.7197 10.668 45.7197C10.8204 45.7197 10.9728 45.7197 11.1252 45.7197H11.2776C11.2776 45.7197 11.2776 45.7197 11.43 45.7197C11.5824 45.7197 11.7348 45.5673 11.8872 45.4149L15.24 42.0621C17.9832 43.5861 21.1836 44.3481 24.5363 44.3481V38.2521C23.7743 38.2521 23.0123 39.0141 23.0123 39.7761V41.3001C20.7264 41.1477 18.7452 40.5381 16.9164 39.4713C16.3068 39.1665 15.6972 38.7093 15.0876 38.4045C11.1252 35.6613 8.38201 31.2417 7.92481 26.2125H9.4488C10.2108 26.2125 10.9728 25.4506 10.9728 24.6886C10.9728 23.9266 10.2108 23.1646 9.4488 23.1646H7.62001C8.38201 14.7826 14.7828 8.38182 22.8599 7.61982V9.14381C22.8599 9.90581 23.6219 10.6678 24.3839 10.6678Z" fill="#FCC822"/>
<path d="M42.082 5.40029L41.1676 4.48589C39.1864 2.5047 35.8336 2.5047 33.8524 4.48589L32.0236 6.31469C28.8232 4.79069 25.1657 4.1811 21.3557 4.63829C12.3641 5.70509 5.20133 12.8679 4.13453 21.8594C2.76294 33.899 12.0593 44.1097 23.7941 44.1097C27.1468 44.1097 30.3472 43.3477 33.0904 41.8237L36.4432 45.1765C36.5956 45.3289 36.748 45.4813 36.9004 45.4813H37.0528H37.2052C37.3576 45.4813 37.3576 45.4813 37.51 45.4813C37.6624 45.4813 37.6624 45.4813 37.8148 45.4813H37.9672H38.1196C38.272 45.4813 38.4244 45.3289 38.5768 45.1765C38.7292 45.0241 38.8816 44.8717 38.8816 44.7193V44.5669V44.4145V44.2621V37.0994C41.7772 33.5942 43.4536 29.1746 43.4536 24.4502C43.4536 20.6402 42.3868 17.2874 40.558 14.2395L42.082 12.7155C44.0632 10.7343 44.0632 7.38148 42.082 5.40029ZM39.034 25.8218H40.558C40.1008 30.851 37.3576 35.2706 33.3952 38.0138C32.7856 38.471 32.176 38.7758 31.5664 39.0806C29.7376 39.995 27.604 40.757 25.4705 40.9094V39.3854C25.4705 38.6234 24.7085 37.8614 23.9465 37.8614C23.1845 37.8614 22.4225 38.6234 22.4225 39.3854V40.9094C14.3453 40.1474 7.94452 33.7466 7.18252 25.6694H8.70651C9.46851 25.6694 10.2305 24.9074 10.2305 24.1454C10.2305 23.3834 9.46851 22.6214 8.70651 22.6214H7.03012C7.79212 14.6967 14.1929 8.29588 22.2701 7.53388V9.05788C22.2701 9.81987 23.0321 10.5819 23.7941 10.5819C24.5561 10.5819 25.3181 9.81987 25.3181 9.05788V7.53388C33.3952 8.29588 39.796 14.6967 40.558 22.7738H39.034C38.272 22.7738 37.51 23.5358 37.51 24.2978C37.51 25.0598 38.272 25.8218 39.034 25.8218Z" fill="#FCC822"/>
</svg>
